# xmcd
#
# Track frame offsets: 
#        150
#        22684
#        44482
#        65309
#        84407
#        103135
#        129085
#        143924
#        161286
#
# Disc length: 2504 seconds
#
# Revision: 22
# Processed by: cddbd v1.5.2PL0 Copyright (c) Steve Scherf et al.
# Submitted via: ExactAudioCopy v1.0b3
#
DISCID=6609c609
DTITLE=Peter Maffay - Laut and leise
DYEAR=2005
DGENRE=Rock
TTITLE0=Gib die Liebe nicht auf
TTITLE1=Früher, später
TTITLE2=Halt Dich an mir fest
TTITLE3=Lebenswert
TTITLE4=Mit Dir
TTITLE5=Die Ruhe vor dem Sturm
TTITLE6=Ich werd' dich begleiten
TTITLE7=Wer schenkt uns ein Wunder?
TTITLE8=Die Antwort
EXTD=YEAR: 2005
EXTT0=
EXTT1=
EXTT2=
EXTT3=
EXTT4=
EXTT5=
EXTT6=
EXTT7=
EXTT8=
PLAYORDER=
